<?xml version="1.0" encoding="UTF-8"?>
<svg width="5249px" height="5435px" viewBox="0 0 5249 5435" version="1.1" xmlns="http://www.w3.org/2000/svg" xmlns:xlink="http://www.w3.org/1999/xlink">
    <!-- Generator: Sketch 51.3 (57544) - http://www.bohemiancoding.com/sketch -->
    <title>help</title>
    <desc>Created with Sketch.</desc>
    <defs>
        <polygon id="path-1" points="0.991735537 3.45234765 3984.58812 3.45234765 3984.58812 3949.99832 0.991735537 3949.99832"></polygon>
        <text id="text-3" font-family="Arenq" font-size="500" font-weight="normal" letter-spacing="20" fill="#0082D5">
            <tspan x="590" y="375">Z</tspan>
            <tspan x="0.25" y="875">MAD</tspan>
            <tspan x="1246.25" y="875">E</tspan>
        </text>
        <filter x="-0.9%" y="-1.2%" width="101.7%" height="102.7%" filterUnits="objectBoundingBox" id="filter-4">
            <feOffset dx="0" dy="2" in="SourceAlpha" result="shadowOffsetOuter1"></feOffset>
            <feGaussianBlur stdDeviation="4" in="shadowOffsetOuter1" result="shadowBlurOuter1"></feGaussianBlur>
            <feColorMatrix values="0 0 0 0 1   0 0 0 0 0.0200244634   0 0 0 0 0.0200244634  0 0 0 0.5 0" type="matrix" in="shadowBlurOuter1"></feColorMatrix>
        </filter>
    </defs>
    <g id="help" stroke="none" stroke-width="1" fill="none" fill-rule="evenodd">
        <rect fill="#FFFFFF" x="0" y="0" width="5249" height="5435"></rect>
        <g id="866715034" transform="translate(584.000000, 717.000000)">
            <g id="Group-11" stroke-width="1">
                <mask id="mask-2" fill="white">
                    <use xlink:href="#path-1"></use>
                </mask>
                <g id="Clip-2"></g>
                <path d="M3392.38017,2080.13827 C3502.13223,2330.15864 3540.06612,2605.03313 3501.93388,2874.77099 C3468.33058,3164.64897 3315.81818,3428.56749 3079.7686,3605.27716 C2689.09091,3893.96852 2193.4876,4008.61605 1712.92562,3921.50473 C1670.79339,3911.52407 1641.38843,3874.13724 1642.19835,3831.51626 C1643.09091,3781.30412 1685.23967,3741.43025 1736.29752,3742.42181 C2065.3719,3703.05185 2377.66942,3577.44835 2640.42975,3378.64794 C2860.54545,3446.43189 3094.90909,3325.86749 3163.73554,3109.41399 C3196.24793,3007.47798 3187.00826,2897.17058 3138.14876,2801.86667 C3128.2314,2782.52305 3126.5124,2760.22099 3133.33884,2739.707 C3198.94215,2541.18292 3211.19008,2329.26461 3168.64463,2124.72613 C3167.04132,2076.39959 3196.7438,2032.28313 3242.67769,2014.92263 C3302.38017,1992.23045 3369.38843,2021.44095 3392.38017,2080.13827" id="Fill-1" fill="#5BC0CC" mask="url(#mask-2)"></path>
                <path d="M1924.41322,346.624691 C2115.04132,346.624691 2269.52066,498.561523 2269.52066,685.918313 C2269.52066,873.388889 2115.04132,1025.32572 1924.41322,1025.32572 C1733.90083,1025.32572 1579.38843,873.388889 1579.38843,685.918313 C1579.38843,498.561523 1733.90083,346.624691 1924.41322,346.624691" id="Fill-3" fill="#F2594B" mask="url(#mask-2)"></path>
                <path d="M3890.18182,1432.9072 C4048.59504,1887.54733 4006.26446,2386.49897 3773.60331,2809.0677 C3750.92562,2845.36543 3705.58678,2861.36049 3664.66116,2847.34856 C3616.39669,2830.97963 3590.92562,2779.27202 3607.57025,2731.807 C3671.27273,2411.93827 3646.29752,2081.0323 3535.23967,1773.79383 C3668.77686,1588.79403 3624.52893,1332.46667 3436.5124,1201.15761 C3348.01653,1139.29053 3238.46281,1113.81872 3131.12397,1130.00885 C3109.45455,1133.25988 3087.28926,1128.02572 3069.53719,1115.3142 C2897.86777,992.571605 2696.71074,915.717284 2485.83471,892.326132 C2438.57851,878.818107 2405.07438,837.383745 2402.46281,789.122222 C2398.94215,726.279835 2447.90083,672.60535 2511.81818,669.25679 C2787.50413,643.801235 3065.00826,693.330658 3314.13223,812.318313 C3584.09917,933.37037 3792.16529,1157.52881 3890.18182,1432.9072" id="Fill-4" fill="#FF8800" mask="url(#mask-2)"></path>
                <path d="M2420.13223,2986.6714 C2420.13223,2799.29835 2574.61157,2647.36152 2765.23967,2647.36152 C2955.75207,2647.36152 3110.26446,2799.29835 3110.26446,2986.6714 C3110.26446,3174.12572 2955.75207,3326.06255 2765.23967,3326.06255 C2574.61157,3326.06255 2420.13223,3174.12572 2420.13223,2986.6714" id="Fill-5" fill="#5BC0CC" mask="url(#mask-2)"></path>
                <path d="M3334.47934,537.931481 C3362.67769,570.393004 3364.08264,617.646708 3337.90083,651.684979 C3307.20661,691.640123 3249.20661,699.637654 3208.57851,669.354321 C2918.84298,510.899177 2591.07438,432.061728 2259.70248,440.937037 C2122.04959,258.911934 1860.5124,221.021193 1675.30579,356.280247 C1588.2314,420.032922 1529.73554,514.540329 1512.28099,619.922428 C1508.77686,641.232922 1496.72727,660.365226 1478.97521,672.995473 C1307.20661,795.640535 1170.76033,960.012551 1082.87603,1150.03519 C1055.28926,1190.08786 1004.94215,1208.63498 957.371901,1196.21605 C895.570248,1180.02593 858.760331,1117.57366 875.206612,1056.81193 C935.801653,791.10535 1069.43802,546.80679 1261.55372,350.672222 C1462.01653,135.486626 1743.12397,10.1757202 2039.68595,3.67366255 C2528.28099,-4.03127572 2997.80165,189.746296 3334.47934,537.931481" id="Fill-6" fill="#F2594B" mask="url(#mask-2)"></path>
                <path d="M1229.55372,2693.93251 C1420.08264,2693.93251 1574.57851,2845.86934 1574.57851,3033.32366 C1574.57851,3220.68045 1420.08264,3372.63354 1229.55372,3372.63354 C1038.94215,3372.63354 884.429752,3220.68045 884.429752,3033.32366 C884.429752,2845.86934 1038.94215,2693.93251 1229.55372,2693.93251" id="Fill-7" fill="#58B002" mask="url(#mask-2)"></path>
                <path d="M2316.89256,3179.55494 C2357.22314,3228.38539 2349.68595,3300.11934 2300.03306,3339.76564 C2092.16529,3519.74259 1838.03306,3640.11193 1565.45455,3687.77202 C1274.61157,3745.88416 972.330579,3684.79733 728.429752,3518.6535 C328.628099,3242.49486 64.5785124,2814.2856 0.26446281,2337.96111 C-3.04132231,2295.4214 24.0495868,2256.36029 65.4876033,2244.02263 C114.347107,2229.42551 165.917355,2256.45782 180.760331,2304.39424 C320.413223,2600.09156 538.413223,2853.37922 811.900826,3037.66379 C814.413223,3264.50432 1003.42149,3446.43189 1234.06612,3443.97737 C1342.6281,3442.77449 1446.46281,3400.1535 1523.52066,3324.97346 C1539.15702,3309.79115 1560.2314,3301.19218 1582.19835,3301.28971 C1794.39669,3301.28971 2003.07438,3247.2251 2187.7686,3144.23251 C2234.01653,3127.84733 2285.78512,3141.95679 2316.89256,3179.55494" id="Fill-8" fill="#58B002" mask="url(#mask-2)"></path>
                <path d="M709.884298,1271.98128 C900.495868,1271.98128 1054.99174,1423.93436 1054.99174,1611.38868 C1054.99174,1798.74547 900.495868,1950.69856 709.884298,1950.69856 C519.355372,1950.69856 364.859504,1798.74547 364.859504,1611.38868 C364.859504,1423.93436 519.355372,1271.98128 709.884298,1271.98128" id="Fill-9" fill="#5C6D77" mask="url(#mask-2)"></path>
                <path d="M1113.4876,278.74321 C1142.77686,319.884979 1132.44628,376.517901 1090.71074,405.224486 C847.917355,627.220988 670.347107,909.394033 576.545455,1222.15926 C358.033058,1294.59218 240.46281,1527.5284 314.099174,1742.51893 C348.809917,1843.64218 422.14876,1927.6 518.661157,1976.44671 C538.214876,1986.41111 552.958678,2003.47901 559.785124,2023.993 C625.305785,2222.51708 742.082645,2400.9823 898.677686,2541.88189 C928.892562,2580.06523 931.190083,2632.95947 904.495868,2673.59733 C869.68595,2726.37778 798.049587,2741.47881 744.380165,2707.343 C506.115702,2568.52407 311.173554,2368.03313 180.760331,2127.79835 C34.677686,1873.73045 0.380165289,1572.11626 85.7520661,1292.70658 C229.206612,833.336214 561.702479,454.071193 1002.52893,246.769342 C1042.54545,230.497942 1088.69421,243.810905 1113.4876,278.74321" id="Fill-10" fill="#5C6D77" mask="url(#mask-2)"></path>
            </g>
            <path d="M3194.72727,1196.60617 C3385.23967,1196.60617 3539.75207,1348.543 3539.75207,1536.01358 C3539.75207,1723.37037 3385.23967,1875.32346 3194.72727,1875.32346 C3004.1157,1875.32346 2849.60331,1723.37037 2849.60331,1536.01358 C2849.60331,1348.543 3004.1157,1196.60617 3194.72727,1196.60617" id="Fill-12" fill="#FF8800"></path>
        </g>
        <g id="Z-MADE" transform="translate(1807.000000, 2218.000000)" stroke="#1B77B2">
            <g>
                <use fill="#0082D5" fill-opacity="1" stroke-opacity="1" filter="url(#filter-4)" xlink:href="#text-3"></use>
                <use fill="#0082D5" fill-opacity="1" stroke-opacity="1" xlink:href="#text-3"></use>
                <use xlink:href="#text-3"></use>
            </g>
        </g>
        <text id="You-Supply-The-Passi" font-family="Besom, Besom 2" font-size="500" font-weight="normal" fill="#000000">
            <tspan x="422" y="492">You Supply The Passion</tspan>
        </text>
        <text id="We’ll-Help-With-The" font-family="Besom, Besom 2" font-size="500" font-weight="normal" fill="#000000">
            <tspan x="138" y="5142">We’ll Help With The Rest</tspan>
        </text>
    </g>
</svg>